<mxfile host="app.diagrams.net" modified="2023-06-26T17:50:26.781Z" agent="Mozilla/5.0 (Windows NT 10.0; Win64; x64) AppleWebKit/537.36 (KHTML, like Gecko) Chrome/114.0.0.0 Safari/537.36" etag="vNEoOil2kEXcIf1ucjJc" version="21.5.0" type="github">
  <diagram name="PÃ¡gina-1" id="LAy2IHAO7teeMzi94ITG">
    <mxGraphModel dx="1434" dy="796" grid="1" gridSize="10" guides="1" tooltips="1" connect="1" arrows="1" fold="1" page="1" pageScale="1" pageWidth="827" pageHeight="1169" math="0" shadow="0">
      <root>
        <mxCell id="0" />
        <mxCell id="1" parent="0" />
        <mxCell id="pimOV9UV9oYnT-JE--vq-1" value="Crear Pedido" style="ellipse;whiteSpace=wrap;html=1;" vertex="1" parent="1">
          <mxGeometry x="340" y="170" width="100" height="40" as="geometry" />
        </mxCell>
        <mxCell id="pimOV9UV9oYnT-JE--vq-2" value="Guardar Pedido" style="ellipse;whiteSpace=wrap;html=1;" vertex="1" parent="1">
          <mxGeometry x="340" y="230" width="100" height="40" as="geometry" />
        </mxCell>
        <mxCell id="pimOV9UV9oYnT-JE--vq-3" value="Agregar Condiciones de Venta" style="ellipse;whiteSpace=wrap;html=1;" vertex="1" parent="1">
          <mxGeometry x="340" y="290" width="100" height="50" as="geometry" />
        </mxCell>
        <mxCell id="pimOV9UV9oYnT-JE--vq-18" style="rounded=0;orthogonalLoop=1;jettySize=auto;html=1;exitX=0.5;exitY=0.5;exitDx=0;exitDy=0;exitPerimeter=0;entryX=0;entryY=0.5;entryDx=0;entryDy=0;" edge="1" parent="1" source="pimOV9UV9oYnT-JE--vq-4" target="pimOV9UV9oYnT-JE--vq-1">
          <mxGeometry relative="1" as="geometry" />
        </mxCell>
        <mxCell id="pimOV9UV9oYnT-JE--vq-19" style="rounded=0;orthogonalLoop=1;jettySize=auto;html=1;exitX=0.5;exitY=0.5;exitDx=0;exitDy=0;exitPerimeter=0;entryX=0;entryY=0.5;entryDx=0;entryDy=0;" edge="1" parent="1" source="pimOV9UV9oYnT-JE--vq-4" target="pimOV9UV9oYnT-JE--vq-2">
          <mxGeometry relative="1" as="geometry" />
        </mxCell>
        <mxCell id="pimOV9UV9oYnT-JE--vq-20" style="rounded=0;orthogonalLoop=1;jettySize=auto;html=1;exitX=0.5;exitY=0.5;exitDx=0;exitDy=0;exitPerimeter=0;entryX=0;entryY=0.5;entryDx=0;entryDy=0;" edge="1" parent="1" source="pimOV9UV9oYnT-JE--vq-4" target="pimOV9UV9oYnT-JE--vq-3">
          <mxGeometry relative="1" as="geometry" />
        </mxCell>
        <mxCell id="pimOV9UV9oYnT-JE--vq-4" value="SuperAdmin" style="shape=umlActor;verticalLabelPosition=bottom;verticalAlign=top;html=1;outlineConnect=0;" vertex="1" parent="1">
          <mxGeometry x="210" y="160" width="40" height="80" as="geometry" />
        </mxCell>
        <mxCell id="pimOV9UV9oYnT-JE--vq-21" style="rounded=0;orthogonalLoop=1;jettySize=auto;html=1;exitX=0.5;exitY=0.5;exitDx=0;exitDy=0;exitPerimeter=0;entryX=0;entryY=0.5;entryDx=0;entryDy=0;fillColor=#dae8fc;strokeColor=#6c8ebf;strokeWidth=2;" edge="1" parent="1" source="pimOV9UV9oYnT-JE--vq-5" target="pimOV9UV9oYnT-JE--vq-1">
          <mxGeometry relative="1" as="geometry" />
        </mxCell>
        <mxCell id="pimOV9UV9oYnT-JE--vq-22" style="rounded=0;orthogonalLoop=1;jettySize=auto;html=1;exitX=0.5;exitY=0.5;exitDx=0;exitDy=0;exitPerimeter=0;entryX=0;entryY=0.5;entryDx=0;entryDy=0;fillColor=#dae8fc;strokeColor=#6c8ebf;strokeWidth=2;" edge="1" parent="1" source="pimOV9UV9oYnT-JE--vq-5" target="pimOV9UV9oYnT-JE--vq-2">
          <mxGeometry relative="1" as="geometry" />
        </mxCell>
        <mxCell id="pimOV9UV9oYnT-JE--vq-23" style="rounded=0;orthogonalLoop=1;jettySize=auto;html=1;exitX=0.5;exitY=0.5;exitDx=0;exitDy=0;exitPerimeter=0;entryX=0;entryY=0.5;entryDx=0;entryDy=0;fillColor=#dae8fc;strokeColor=#6c8ebf;strokeWidth=2;" edge="1" parent="1" source="pimOV9UV9oYnT-JE--vq-5" target="pimOV9UV9oYnT-JE--vq-3">
          <mxGeometry relative="1" as="geometry" />
        </mxCell>
        <mxCell id="pimOV9UV9oYnT-JE--vq-5" value="Admin" style="shape=umlActor;verticalLabelPosition=bottom;verticalAlign=top;html=1;outlineConnect=0;" vertex="1" parent="1">
          <mxGeometry x="210" y="300" width="40" height="70" as="geometry" />
        </mxCell>
        <mxCell id="pimOV9UV9oYnT-JE--vq-24" style="rounded=0;orthogonalLoop=1;jettySize=auto;html=1;exitX=0.5;exitY=0.5;exitDx=0;exitDy=0;exitPerimeter=0;entryX=1;entryY=0.5;entryDx=0;entryDy=0;fillColor=#fff2cc;strokeColor=#d6b656;strokeWidth=2;" edge="1" parent="1" source="pimOV9UV9oYnT-JE--vq-6" target="pimOV9UV9oYnT-JE--vq-1">
          <mxGeometry relative="1" as="geometry" />
        </mxCell>
        <mxCell id="pimOV9UV9oYnT-JE--vq-25" style="rounded=0;orthogonalLoop=1;jettySize=auto;html=1;exitX=0.5;exitY=0.5;exitDx=0;exitDy=0;exitPerimeter=0;entryX=1;entryY=0.5;entryDx=0;entryDy=0;fillColor=#fff2cc;strokeColor=#d6b656;strokeWidth=2;" edge="1" parent="1" source="pimOV9UV9oYnT-JE--vq-6" target="pimOV9UV9oYnT-JE--vq-2">
          <mxGeometry relative="1" as="geometry" />
        </mxCell>
        <mxCell id="pimOV9UV9oYnT-JE--vq-26" style="rounded=0;orthogonalLoop=1;jettySize=auto;html=1;exitX=0.5;exitY=0.5;exitDx=0;exitDy=0;exitPerimeter=0;entryX=1;entryY=0.5;entryDx=0;entryDy=0;fillColor=#fff2cc;strokeColor=#d6b656;strokeWidth=2;" edge="1" parent="1" source="pimOV9UV9oYnT-JE--vq-6" target="pimOV9UV9oYnT-JE--vq-3">
          <mxGeometry relative="1" as="geometry" />
        </mxCell>
        <mxCell id="pimOV9UV9oYnT-JE--vq-6" value="Compras" style="shape=umlActor;verticalLabelPosition=bottom;verticalAlign=top;html=1;outlineConnect=0;" vertex="1" parent="1">
          <mxGeometry x="540" y="200" width="40" height="80" as="geometry" />
        </mxCell>
      </root>
    </mxGraphModel>
  </diagram>
</mxfile>
